<svg width="54" height="32" viewBox="0 0 54 32" fill="none" xmlns="http://www.w3.org/2000/svg">
<path d="M44.3512 27.9478L9.52868 27.9478L9.52868 32L44.3512 32V27.9478Z" fill="white"/>
<path d="M5.79502 0.651204L15.2885 23.8956L9.52868 23.8956L0.0351562 0.651204L5.79502 0.651204Z" fill="white"/>
<path d="M48.7321 0.651204L43.5642 13.3056C42.4649 15.9986 42.4162 18.6538 43.1869 21.7897L43.3625 22.565H42.003L33.0559 0.651204L25.4943 0.651204L16.0008 23.8956H21.1134L26.2814 11.2412C27.3806 8.54824 27.4706 5.83605 26.6586 2.75711L26.483 1.98171L27.8425 1.98171L36.7929 23.8924H44.3577L53.8513 0.64801L48.7321 0.651204Z" fill="white"/>
</svg>
