<svg width="122" height="25" viewBox="0 0 122 25" fill="none" xmlns="http://www.w3.org/2000/svg">
<path d="M0.666988 12.6929C0.559675 8.24183 3.41371 4.16408 7.80434 2.04548C11.86 0.0927191 19.319 -0.861304 27.0433 1.00849C28.4027 1.33715 29.7752 1.75196 31.1445 2.26562V6.99203C26.6114 4.84071 22.438 4.05884 18.2848 4.05884C14.7788 4.05884 12.4847 4.70018 10.1431 5.87434C7.2914 7.30425 6.04353 9.89351 6.19593 12.5812C6.32998 14.9455 7.49747 17.3933 10.457 18.8C12.4516 19.748 15.2634 20.4209 18.5124 20.4942C22.2233 20.574 26.7661 19.8349 31.1445 18.199V22.8298C26.1717 24.1284 22.4413 24.5464 18.6556 24.5464C14.6747 24.5464 10.9874 23.9593 8.24247 22.7884C3.71848 20.8548 0.771064 17.0833 0.666988 12.6929Z" fill="white"/>
<path d="M41.4218 4.71607L60.7958 4.71607V0.651095L36.0262 0.651095L36.0262 23.9304L60.7958 23.9336L60.7958 19.8401L41.4218 19.8401V14.3999L60.7958 14.3999V10.3445L41.4218 10.3445V4.71607Z" fill="white"/>
<path d="M85.8738 10.4817C83.4477 9.83906 80.7826 9.89001 78.5181 9.9334C78.2083 9.93932 77.906 9.94508 77.6129 9.9489C74.5915 9.99042 70.1261 9.88829 69.7911 7.54947C69.7163 7.01664 69.8951 6.22535 70.796 5.69884C72.6726 4.61083 75.7201 4.12903 78.6992 4.16096C81.8864 4.19283 85.5486 4.90536 89.601 6.7285V2.23695C83.9484 -0.293346 73.8467 -1.07186 68.2202 2.00404C66.2038 3.10801 64.9744 5.01925 64.8475 7.24637C64.7337 9.2757 65.5468 11.3337 67.1242 12.3451C69.6415 13.9565 73.5638 14.3457 77.2584 14.3999C77.6181 14.4055 77.9777 14.3969 78.3374 14.3969C81.2289 14.3694 86.3974 14.3202 86.6706 16.7994C86.7357 17.3801 86.4471 18.3189 85.4741 18.8202C83.6658 19.7518 80.7156 20.3793 76.5169 20.3762C73.593 20.373 68.8194 19.4932 65.3842 18.2875V22.8267C68.9097 23.937 73.2221 24.5781 77.9089 24.505C81.6069 24.4473 84.8351 24.3117 87.862 22.8267C90.5584 21.5038 91.9513 18.6327 91.6816 16.0948C91.5277 14.6466 90.7783 11.7804 85.8738 10.4817Z" fill="white"/>
<path d="M115.161 10.4817C112.735 9.83906 110.07 9.89001 107.805 9.9334C107.495 9.93932 107.193 9.94508 106.9 9.9489C103.878 9.99042 99.413 9.88829 99.078 7.54947C99.0032 7.01664 99.1821 6.22535 100.083 5.69884C101.96 4.61083 105.007 4.12903 107.986 4.16096C111.173 4.19283 114.836 4.90536 118.888 6.7285V2.23695C113.235 -0.293346 103.134 -1.07186 97.5072 2.00404C95.4907 3.10801 94.2614 5.01925 94.1345 7.24637C94.0207 9.2757 94.8338 11.3337 96.4111 12.3451C98.9284 13.9565 102.851 14.3457 106.545 14.3999C106.905 14.4055 107.265 14.3969 107.624 14.3969C110.516 14.3694 115.684 14.3202 115.958 16.7994C116.023 17.3801 115.734 18.3189 114.761 18.8202C112.953 19.7518 110.003 20.3793 105.804 20.3762C102.88 20.373 98.1063 19.4932 94.6712 18.2875V22.8267C98.1967 23.937 102.509 24.5781 107.196 24.505C110.894 24.4473 114.122 24.3117 117.149 22.8267C119.845 21.5038 121.238 18.6327 120.969 16.0948C120.815 14.6466 120.065 11.7804 115.161 10.4817Z" fill="white"/>
</svg>
