<svg width="61" height="24" viewBox="0 0 61 24" fill="none" xmlns="http://www.w3.org/2000/svg">
<path fill-rule="evenodd" clip-rule="evenodd" d="M0.325232 0.622372C9.47075 -0.156145 18.0178 -0.408224 22.2849 1.2031C26.1064 2.64617 27.7976 5.47872 27.7976 8.72365C27.7976 11.6209 26.63 13.7139 24.1517 15.4401C22.2741 16.7474 19.8466 17.3298 16.9328 17.5384C14.0019 17.7482 10.579 17.5798 6.72887 17.3903L5.3956 17.3253L5.3956 23.9304H0L0 0.652344L0.325232 0.622372ZM5.3956 13.3437L5.3956 4.19409C13.0565 3.62808 16.8147 3.75163 19.605 5.05113C21.7515 6.05298 22.0995 7.86218 22.0995 8.72365C22.1028 9.77661 21.7743 11.0784 20.314 12.0675C17.8622 13.7321 14.2832 13.7738 5.3956 13.3437Z" fill="white"/>
<path fill-rule="evenodd" clip-rule="evenodd" d="M52.6062 17.1338L51.9242 16.0435C55.9635 14.8432 60.1403 11.8825 59.28 6.99111C58.8344 4.4577 56.9603 2.42541 53.7234 1.2031C49.4564 -0.408146 40.8133 -0.159261 31.6678 0.62245L31.3426 0.652344L31.3426 23.9304L36.7382 23.9304L36.7382 17.6701C38.5399 17.6687 47.3536 17.6619 49.1035 17.6704C51.0841 17.68 51.9395 18.1682 52.6062 19.8242C53.016 20.8452 54.2714 23.8987 54.2714 23.8987L60.0345 23.8987C60.0345 23.8987 58.5775 20.2454 58.1222 19.1956C57.1432 16.9398 55.5044 16.4277 52.6062 17.1338ZM36.7382 4.19425V13.3397C38.5262 13.4356 40.108 13.4543 41.5191 13.4332C47.7505 13.3406 50.2288 12.9993 51.9818 11.8825C53.3468 11.0129 53.7673 9.77661 53.7673 8.72365C53.7673 7.86218 53.2732 5.9828 51.2728 5.05113C48.4824 3.75163 44.408 3.6312 36.7382 4.19425Z" fill="white"/>
</svg>
