<svg width="215" height="83" viewBox="0 0 215 83" fill="none" xmlns="http://www.w3.org/2000/svg">
<path d="M17.4474 82.4113H-31.8417C-20.9763 80.0567 -17.4204 75.3475 -25.52 64.7517L-52.8809 29.4326C-61.3756 18.8368 -67.3021 14.1276 -76.4883 11.773H-27.1992C-38.0645 14.1276 -41.6205 18.8368 -33.5208 29.4326L-5.6661 64.7517C3.42126 75.3475 8.36005 80.0567 17.4474 82.4113ZM-40.929 82.4113H-76.4883C-65.8205 78.8794 -62.2646 75.3475 -58.7087 64.7517C-55.1527 75.3475 -51.5968 78.8794 -40.929 82.4113ZM-18.0131 11.773H17.5462C6.87842 15.3049 3.32248 18.8368 -0.233444 29.4326C-3.78938 18.8368 -7.34529 15.3049 -18.0131 11.773Z" fill="white"/>
<path d="M47.676 58.8652C47.676 71.325 48.8613 75.6418 55.3805 82.4113H24.5625C31.0817 75.7399 32.267 71.325 32.267 58.8652V35.3191C32.267 22.8593 31.0817 18.5425 24.5625 11.773H55.3805C48.8613 18.4444 47.676 22.8593 47.676 35.3191V58.8652ZM87.8777 47.0922C82.6426 47.4846 74.2467 50.8203 70.0981 55.9219C65.9495 50.8203 57.5536 47.4846 52.3185 47.0922C57.5536 46.6997 66.0483 43.364 70.0981 38.2624C74.1479 43.2659 82.7414 46.6997 87.8777 47.0922ZM108.028 58.8652C108.028 71.325 109.213 75.6418 115.732 82.4113H84.9144C91.4336 75.6418 92.6189 71.325 92.6189 58.8652V35.3191C92.6189 22.8593 91.4336 18.5425 84.9144 11.773H115.732C109.213 18.4444 108.028 22.8593 108.028 35.3191V58.8652Z" fill="white"/>
<path d="M146.84 58.8652C146.84 71.325 148.025 75.6418 154.545 82.4113H123.727C130.246 75.7399 131.431 71.325 131.431 58.8652V35.3191C131.431 22.8593 130.246 18.5425 123.727 11.773H154.545C148.025 18.4444 146.84 22.8593 146.84 35.3191V58.8652ZM181.905 34.6323C178.448 38.5567 174.991 46.8959 175.584 53.3711C169.065 52.6844 160.669 56.2163 156.718 59.6501C160.175 55.7257 163.731 47.3865 163.039 40.9113C169.558 41.5981 177.954 37.968 181.905 34.6323ZM207.291 58.8652C207.291 71.325 208.476 75.6418 214.995 82.4113H184.177C190.696 75.7399 191.882 71.325 191.882 58.8652V35.3191C191.882 22.8593 190.696 18.5425 184.177 11.773H214.995C208.476 18.4444 207.291 22.8593 207.291 35.3191V58.8652Z" fill="white"/>
</svg>
